<svg xmlns="http://www.w3.org/2000/svg" width="732" height="54" viewBox="0 0 732 54">
    <path d="M1.1 51.6s2-1.5 4.7-9l15-42s7.3.3 9.9 8.7c2.7 9.1 9.1 28.4 12.7 36.4 2 4.5 2.4 5.4 3.3 5.8v.5s-2.7.7-5.3.7c-3.2 0-5.8-1.2-6.6-4.3-.9-3.2-2.3-7.9-4-13.2-2.2-.1-4.8-.1-7.2-.1-3.7 0-7.3.1-10.4.3-4.3 13.1-4 17.4-9.6 17.4-1.2 0-2.6-.7-2.6-.7v-.5zm21-20c2.5 0 5-.1 7.4-.1-2.6-7.6-5.4-15.8-7.7-21.7h-.4c-3.1 8.9-5.3 16-7.1 21.7 2.4 0 5.1.1 7.8.1zM54.9 32.1c0-4.3-.3-19.4-.4-22.9-.4-7-.7-7.6-.7-7.6.8-.3 2.1-.6 3.6-.6s3 .1 3.7 1.2c1.9 2.9 4.6 6.4 7.6 10l14 16.8c3.7 4.5 6.5 8.1 7.2 9.6l.3-.3c-.3-5.7-.2-21.8-.6-29.2-.4-7-.7-7.6-.7-7.6s1.2-.6 2.7-.6c3.1 0 3.3 1.5 3.3 4.1 0 8.7-.4 17.1-.4 28.4 0 8.1.1 16.1.6 18.6 0 0-1.6.4-3.5.4-1.1 0-2.4-.5-3.4-1.9-1.8-2.8-4.6-6.4-7.9-10.4l-14.2-17c-3.7-4.5-6.5-8.1-6.8-9.4l-.3.2c0 11.2.6 22 .6 33.8 0 3.9-.1 4.9-2.7 4.9-1.5 0-3.2-.7-3.2-.7s1.2-1.9 1.2-19.8zM109.8 32.1c0-4.3-.3-19.4-.4-22.9-.4-7-.7-7.6-.7-7.6.9-.3 2.2-.6 3.7-.6s3 .1 3.7 1.2c1.9 2.9 4.6 6.4 7.6 10l14 16.8c3.7 4.5 6.5 8.1 7.2 9.6l.3-.3c-.3-5.7-.2-21.8-.6-29.2-.4-7-.7-7.6-.7-7.6s1.2-.6 2.7-.6c3.1 0 3.3 1.5 3.3 4.1 0 8.7-.4 17.1-.4 28.4 0 8.1.1 16.1.6 18.6 0 0-1.6.4-3.5.4-1.1 0-2.4-.5-3.4-1.9-1.8-2.8-4.6-6.4-7.9-10.4l-14.3-17c-3.7-4.5-6.5-8.1-6.8-9.4l-.3.3c0 11.2.6 22 .6 33.8 0 3.9-.1 4.9-2.7 4.9-1.5 0-3.2-.7-3.2-.7s1.2-2 1.2-19.9zM157.6 51.6s2-1.5 4.7-9l15-42s7.3.3 9.9 8.7c2.7 9.1 9.1 28.4 12.7 36.4 2 4.5 2.4 5.4 3.3 5.8v.5s-2.7.7-5.3.7c-3.2 0-5.8-1.2-6.6-4.3-.9-3.2-2.3-7.9-4-13.2-2.2-.1-4.8-.1-7.2-.1-3.7 0-7.3.1-10.4.3-4.3 13.1-4 17.4-9.6 17.4-1.2 0-2.6-.7-2.6-.7v-.5zm21-20c2.5 0 5-.1 7.4-.1-2.6-7.6-5.4-15.8-7.7-21.7h-.3c-3.1 8.9-5.3 16-7.1 21.7 2.3 0 5 .1 7.7.1zM228.4 32.1c0-4.3-.3-19.4-.4-22.9-.4-7-.7-7.6-.7-7.6 1.2-.4 2.8-.6 4-.6 3.2 0 5.7 1.7 5.7 4.5 0 2.9-.1 10.6-.1 17.7 2.8.2 7.3.3 11.6.3 5 0 10.4-.1 13.9-.3-.1-5.1-.2-9.9-.4-13.9-.3-7-.7-7.6-.7-7.6 1.2-.4 2.8-.6 4-.6 3.2 0 5.7 1.7 5.7 4.5 0 6.3-.3 12.2-.3 18.2 0 8.8.3 25.3.9 28.4-1.9.3-2.7.7-5 .7-3.6 0-4.6-2.2-4.6-6 0-5.5.3-12.3.4-19.2-3.2-.2-8-.3-12.4-.3-4.7 0-9.8.1-13.2.3v7.2c0 4 .3 8.4.3 13 0 3.9-2.2 4.9-4.7 4.9-1.5 0-3-.4-4.8-.7-.1-.1.8-2.1.8-20zM278.6 51.6s2-1.5 4.7-9l15-42s7.3.3 9.9 8.7c2.7 9.1 9.1 28.4 12.7 36.4 2 4.5 2.4 5.4 3.3 5.8v.5s-2.7.7-5.3.7c-3.2 0-5.8-1.2-6.6-4.3-.9-3.2-2.3-7.9-4-13.2-2.2-.1-4.8-.1-7.2-.1-3.7 0-7.3.1-10.4.3-4.3 13.1-4 17.4-9.6 17.4-1.2 0-2.6-.7-2.6-.7v-.5zm21.1-20c2.5 0 5-.1 7.4-.1-2.6-7.6-5.4-15.8-7.7-21.7h-.4c-3.1 8.9-5.3 16-7.1 21.7 2.4 0 5 .1 7.8.1zM332.4 32.1c0-4.3-.3-19.4-.4-22.9-.4-7-.7-7.6-.7-7.6.9-.3 2.2-.6 3.7-.6s3 .1 3.7 1.2c1.9 2.9 4.6 6.4 7.6 10l14 16.8c3.7 4.5 6.5 8.1 7.2 9.6l.3-.3c-.3-5.7-.2-21.8-.6-29.2-.4-7-.7-7.6-.7-7.6s1.2-.6 2.7-.6c3.1 0 3.3 1.5 3.3 4.1 0 8.7-.4 17.1-.4 28.4 0 8.1.1 16.1.6 18.6 0 0-1.6.4-3.5.4-1.1 0-2.4-.5-3.4-1.9-1.8-2.8-4.6-6.4-7.9-10.4L343.6 23c-3.7-4.5-6.5-8.1-6.8-9.4l-.3.3c0 11.2.6 22 .6 33.8 0 3.9-.1 4.9-2.7 4.9-1.5 0-3.2-.7-3.2-.7s1.2-1.9 1.2-19.8zM409.7.5c6.4 0 16.6 2.3 16.6 6.8 0 1.7-1.5 4.6-2.9 6.1h-.4c-3.8-5.8-9.4-8.8-14.9-8.8-8.1 0-15.7 6.6-15.7 20.3 0 11.6 6.3 23.5 18.4 23.5 2.7 0 5.3-.3 7.8-1.1.2-1.8.4-4.5.4-6.7 0-5.3-.1-11.2-1.2-12 .9-.4 2.2-.4 3.4-.4 3.4 0 6.3 1.1 6.3 4.9 0 3.9-.4 8.8-.4 12.7 0 2.2.1 6 .1 6l-.4.4s-1.2-.2-2.4-.2c-4.5 0-11.9 1-15.2 1-17.6 0-25.6-12.1-25.6-24.8 0-13.5 9.4-27.7 26.1-27.7zM466.8 25.5c0-6-.1-11.7-.4-16.3-.1-1-.1-1.9-.1-2.6-4.6-.1-6.3-.1-7.5-.1-3.7 0-6.8.4-8.4.6 0 0-.2-1.6-.2-2.9 0-1.4.3-3.1 1.7-3.1 0 0 24.2.4 31.5.4 3.5 0 6.6-.5 7.8-.7 0 0 .3 1.8.3 3.6 0 1.6-.6 2.4-1.4 2.4 0 0-6.8-.1-14.8-.1-.1 5.8-.3 11.2-.3 16.8 0 9.4 0 18.9 1.2 28.4-1.8.3-3.3.7-4.8.7-2.5 0-4.7-1-4.7-4.9V25.5zM489.7 51.6s2-1.5 4.7-9l15-42s7.3.3 9.9 8.7c2.7 9.1 9.1 28.4 12.7 36.4 2 4.5 2.4 5.4 3.3 5.8v.5s-2.7.7-5.3.7c-3.2 0-5.8-1.2-6.6-4.3-.9-3.2-2.3-7.9-4-13.2-2.2-.1-4.8-.1-7.2-.1-3.7 0-7.3.1-10.4.3-4.3 13.1-4 17.4-9.6 17.4-1.2 0-2.6-.7-2.6-.7v-.5zm21.1-20c2.5 0 5-.1 7.4-.1-2.6-7.6-5.4-15.8-7.7-21.7h-.4c-3.1 8.9-5.3 16-7.1 21.7 2.4 0 5 .1 7.8.1zM550.1 25.5c0-6-.1-11.7-.4-16.3-.1-1-.1-1.9-.1-2.6-4.6-.1-6.3-.1-7.5-.1-3.7 0-6.8.4-8.4.6 0 0-.2-1.6-.2-2.9 0-1.4.3-3.1 1.7-3.1 0 0 24.2.4 31.5.4 3.5 0 6.6-.5 7.8-.7 0 0 .3 1.8.3 3.6 0 1.6-.6 2.4-1.4 2.4 0 0-6.8-.1-14.8-.1-.1 5.8-.3 11.2-.3 16.8 0 9.4 0 18.9 1.2 28.4-1.8.3-3.3.7-4.8.7-2.5 0-4.7-1-4.7-4.9V25.5zM593.2 25.5c0-6-.1-11.7-.4-16.3-.1-1-.1-1.9-.1-2.6-4.6-.1-6.3-.1-7.5-.1-3.7 0-6.8.4-8.4.6 0 0-.2-1.6-.2-2.9 0-1.4.3-3.1 1.7-3.1 0 0 24.2.4 31.5.4 3.5 0 6.6-.5 7.8-.7 0 0 .3 1.8.3 3.6 0 1.6-.6 2.4-1.4 2.4 0 0-6.8-.1-14.8-.1-.1 5.8-.3 11.2-.3 16.8 0 9.4 0 18.9 1.2 28.4-1.8.3-3.3.7-4.8.7-2.5 0-4.7-1-4.7-4.9V25.5zM647.4.5c16.6 0 25.1 11.6 25.1 23.6 0 14.8-8.9 28.9-26.1 28.9-16.6 0-25.1-12.2-25.1-25.1.1-14.1 9-27.4 26.1-27.4zm0 48.6c10.3 0 15.8-11.7 15.8-23.3 0-10.7-5.8-21.4-16.8-21.4-10.3 0-15.7 10.9-15.7 21.8-.1 11.6 5.8 22.9 16.7 22.9zM706.5.5c16.6 0 25.1 11.6 25.1 23.6 0 14.8-8.9 28.9-26.1 28.9-16.6 0-25.1-12.2-25.1-25.1.1-14.1 9-27.4 26.1-27.4zm0 48.6c10.3 0 15.8-11.7 15.8-23.3 0-10.7-5.8-21.4-16.8-21.4-10.3 0-15.7 10.9-15.7 21.8 0 11.6 5.9 22.9 16.7 22.9z"/>
</svg>
