<?xml version="1.0" encoding="utf-8"?>
<!-- Generator: Adobe Illustrator 19.0.0, SVG Export Plug-In . SVG Version: 6.00 Build 0)  -->
<svg version="1.1"
	 id="svg8" xmlns:dc="http://purl.org/dc/elements/1.1/" xmlns:cc="http://creativecommons.org/ns#" xmlns:rdf="http://www.w3.org/1999/02/22-rdf-syntax-ns#" xmlns:svg="http://www.w3.org/2000/svg"
	 xmlns="http://www.w3.org/2000/svg" xmlns:xlink="http://www.w3.org/1999/xlink" x="0px" y="0px" viewBox="-594 351.6 90.8 98.4"
	 style="enable-background:new -594 351.6 90.8 98.4;" xml:space="preserve">
<style type="text/css">
	.st0{fill:#FFFFFF;}
</style>
<g id="layer1" transform="translate(-6.3882869,-1.727187)">
	<g id="flowRoot4536" transform="scale(0.26458333)">
	</g>
	<g id="flowRoot4548" transform="scale(0.26458333)">
	</g>
	<g id="g4689" transform="translate(-17.20665,-11.724334)">
		<g id="g4704" transform="translate(-7.0158251,1.4499372)">
			<g id="text4562">
			</g>
			<g id="g4670" transform="translate(3.5048491,-0.37417733)">
				<g id="g4644" transform="translate(0.38807949)">
					<g id="text4546">
					</g>
					<g id="text4558">
					</g>
				</g>
				<g id="g4658" transform="translate(12.633854,26.9875)">
					<g id="text4648">
					</g>
					<g id="text4652">
						<path id="path6263" class="st0" d="M-502.1,373.8c-1.7-2.2-2-3.7-2-3.7c-0.5-2.8-0.2-4.2,0.8-5.6c-0.8-0.6-1.6-1.3-2.5-1.9
							c-1.6-1-3.1-0.6-4,1.1c-0.5,1.1-1.1,2.2-1.4,3.3c-0.5,1.3-0.8,2.6-1.1,4c-0.3,1.1,0.4,2.3,1.3,2.6c1,0.3,1.5-0.4,1.9-1.1
							c0.4-0.7,0.7-1.3,1-1.9c0.5-0.8,1.1-0.8,1.6-0.1c0.8,1.4,1.4,2.5,2.7,3.1C-503.3,373.7-502.1,373.8-502.1,373.8L-502.1,373.8z
							 M-510.4,369.3c-0.3-1.4,0.4-2.7,1-3.9c0.2-0.4,0.7-0.3,1-0.2c0.2,0,0.6,0.4,0.5,0.7c-0.3,0.8-0.5,1.7-1,2.6
							C-509.1,369-510.1,370.1-510.4,369.3z M-521.4,373.5c0.1-0.5,0.3-0.9,0.3-1.4c0.1-2.3,0.8-4.3,2.2-6.1
							c0.4,0.6,0.5,1.3,0.7,1.9c0.3,1,0.5,2,0.9,2.9c0.5,1.5,1.6,2.5,3.4,2.2c1.1-0.2,2.5-1.3,3.4-4.2l-1,0.6
							c-1.6,1-2.6,0.1-3.2-1.7c-0.3-0.9-0.2-1.9-0.2-2.8c0-0.7,0.2-1.3,0.2-1.9c-0.1-0.5-0.3-1.3-0.7-1.4c-1.1-0.5-2.3-0.8-3.4-1
							c-0.4-0.1-0.9,0.5-1.3,1c-0.3,0.4-0.4,0.9-0.5,1.4c-1.4-0.4-2.3-2.2-4.3-1c1.6,1,1.4,2.3,1.3,3.7c-0.1,1-0.2,2-0.5,2.8
							c-0.7,1.9,0.1,3.2,1.3,4.4C-522.6,373.3-521.9,373.3-521.4,373.5z M-534.6,373.5c0.1-0.5,0.3-0.9,0.3-1.4
							c0.1-2.3,0.8-4.3,2.2-6.1c0.4,0.6,0.5,1.3,0.7,1.9c0.3,1,0.5,2,0.9,2.9c0.5,1.5,1.6,2.5,3.4,2.2c1.1-0.2,2.5-1.3,3.4-4.2
							l-1,0.6c-1.6,1-2.6,0.1-3.2-1.7c-0.3-0.9-0.2-1.9-0.2-2.8c0-0.7,0.2-1.3,0.2-1.9c-0.1-0.5-0.3-1.3-0.7-1.4
							c-1.1-0.5-2.3-0.8-3.4-1c-0.4-0.1-0.9,0.5-1.3,1c-0.3,0.4-0.4,0.9-0.5,1.4c-1.4-0.4-2.3-2.2-4.3-1c1.6,1,1.4,2.3,1.3,3.7
							c-0.1,1-0.2,2-0.5,2.8c-0.7,1.9,0.1,3.2,1.3,4.4C-535.8,373.3-535.1,373.3-534.6,373.5L-534.6,373.5z M-562.9,373.3
							c2-2,4.4-3.8,5.5-6.7c0.2-0.5,0.6-1,1-1.5c0.6,0.2,1.1,0.5,1.6,0.7c1.1,0.3,2,0.2,3.1-0.4c2-1.4,3.4-1,4.2,1.3
							c0.4,1.1,0.5,2.3,0.8,3.4c0.6,1.9,1.7,2.6,4.4,2.3c-0.8-2.3-1.6-4.3-2.2-6.3c1.6-1.9,4.3-0.2,6.1-2.1
							c-0.4-0.5-0.7-1.1-1.3-1.4c-2.2-1.1-4.6-0.7-7.2-0.4c-0.6-1.6-1.2-3.1-1.8-4.6c-2-5.5-3.9-11-6-16.5c-1.6-4.1-5.3-5.2-9-2.5
							c0.5,0.4,0.8,1.1,1.4,1.2c1.9,0.6,2.7,2,3.5,3.7c1.3,2.9,2.7,5.8,4,8.8c0.1,0.2,0,0.6,0,0.9c-1.1-0.4-1.9-0.5-4.4,0
							c1.1,2.4,0,4.3-1,6.1c-1.3,2.3-2.8,4.5-4.3,6.7c-1.3,2-1.9,4-1.4,6.4C-565.7,373.6-563.9,374.3-562.9,373.3z M-549.8,362.9
							c-2.1-0.2-3.7-0.4-5.3-0.5c0.2-2,0.7-3.6,2.2-5.3C-551.8,359.1-550.9,360.8-549.8,362.9z M-512.6,420.5
							c3.8,1.9,6.3,0.4,6.2-3.9c-0.1-3.5-0.4-7-0.5-10.5c-0.1-3.6-0.1-7.1,1.9-10.3c0.2-0.2,0.1-0.7,0-1.1c-0.2-0.7-0.4-1.4-0.8-1.9
							c-0.4-0.5-1.1-1-1.8-1.3c-0.6-0.2-1.3-0.1-2-0.1c-0.1,0.7-0.2,1.2-0.3,1.9c-0.5,0.1-1,0.1-1.4,0.1c-2.2,0-3.7,1.1-3.8,3.3
							c-0.1,1.6,0,3.3,0.4,4.9c0.5,2.2,1.8,3,4,3.1h1.7c0.1,3.2,0.4,6.3,0.3,9.3c-0.1,2.5-1.1,3.1-3.5,2.8c-0.4-0.1-0.7-0.2-1.1-0.3
							c-2.3-0.6-4.3-1.8-6.2-3.4c0.5,1.8,1.9,3.1,3.2,4.4C-515.3,418.6-514,419.8-512.6,420.5L-512.6,420.5z M-510.8,402.1
							c-1,0.7-1.9,0.2-2-1c-0.1-1.4,0.3-2.9,1.3-4c0.8-0.8,1.6-0.6,1.8,0.5c0.1,0.5,0.1,1.1,0.1,1.7
							C-509.4,400.5-509.8,401.5-510.8,402.1L-510.8,402.1z M-524.9,404.6c0.1-0.5,0.3-0.9,0.3-1.4c0.1-2.3,0.8-4.3,2.2-6.1
							c0.4,0.6,0.5,1.3,0.7,1.9c0.3,1,0.5,2,0.9,2.9c0.5,1.5,1.6,2.5,3.4,2.2c1.1-0.2,2.5-1.3,3.4-4.2l-1,0.6
							c-1.6,1-2.6,0.1-3.2-1.7c-0.3-0.9-0.2-1.9-0.2-2.8c0-0.7,0.2-1.3,0.2-1.9c-0.1-0.5-0.3-1.3-0.7-1.4c-1.1-0.5-2.3-0.8-3.4-1
							c-0.4-0.1-0.9,0.5-1.3,1c-0.3,0.4-0.4,0.9-0.5,1.4c-1.4-0.4-2.3-2.2-4.3-1c1.6,1,1.4,2.3,1.3,3.7c-0.1,1-0.2,2-0.5,2.8
							c-0.7,1.9,0.1,3.2,1.3,4.4C-526.1,404.4-525.4,404.4-524.9,404.6z M-529.7,404.8c-1.7-2.2-2-3.7-2-3.7
							c-0.5-2.8-0.2-4.2,0.8-5.6c-0.8-0.6-1.6-1.3-2.5-1.9c-1.6-1-3.1-0.6-4,1.1c-0.5,1.1-1.1,2.2-1.4,3.3c-0.5,1.3-0.8,2.6-1.1,4
							c-0.3,1.1,0.4,2.3,1.3,2.6c1,0.3,1.5-0.4,1.9-1.1c0.4-0.7,0.7-1.3,1-1.9c0.5-0.8,1.1-0.8,1.6-0.1c0.8,1.4,1.4,2.5,2.7,3.1
							C-530.9,404.8-529.7,404.8-529.7,404.8z M-537.9,400.4c-0.3-1.4,0.4-2.7,1-3.9c0.2-0.4,0.7-0.3,1-0.2c0.2,0,0.6,0.4,0.5,0.7
							c-0.3,0.8-0.5,1.7-1,2.6C-536.7,400-537.7,401.2-537.9,400.4z M-543.9,421.3c1.4-0.1,1.7-1,1.9-1.9c0.2-1.4,0.2-2.9,0.2-4.3
							c0.2-5.8,0.3-11.6,0.5-17.5c0.1-0.6,0.4-1.3,0.5-1.9c0.1-0.5,0.4-1.2,0.2-1.4c-1.1-1.2-1-2.6-0.8-4.1c0.1-2.2,0.2-4.4,0.4-6.5
							c0.1-0.8,0.4-1.7,0.7-2.5c0.7-1.4,0.7-1.9-0.5-2.8c-1.4-1.1-3-2.2-4.6-3c-1.3-0.7-2.8-0.9-4.3-1.3c-0.6,1.6,0.3,2.1,0.9,2.7
							c1.3,1.3,1.9,2.7,2,4.6c0.2,3.3,0.7,6.7,1,10c0.1,0.7,0.1,1.4,0.1,2.2c-2.4,0.3-4.6,0.6-7.1,1c0.1-1,0.1-1.7,0.2-2.3
							c0.2-2-0.5-3.5-2.3-4.7c-2.2-1.5-4.7-1.9-7-2.8c-1-0.3-1.6,0.4-1.3,1.4c0.1,0.5,0.4,1,0.8,1.2c1,0.7,1.4,1.8,1.6,3l2,9.4
							c0.1,0.2,0.1,0.5,0.1,0.8c-0.1,2.5,1.1,4.5,1.8,6.7c0.3,0.8,0.8,1.4,1.8,1.3c1.1-0.1,1.2-0.9,1.5-1.7c0.7-2.2,0.6-4.3,0.6-6.5
							s1-3.4,3.2-3.9c0.7-0.1,1.3-0.2,2-0.3c2-0.2,2.3-0.1,2.5,1.9c0.3,2.4,0.6,4.9,0.7,7.3c0.2,4.9,0.4,9.9,0.7,14.8
							C-543.9,420.4-543.9,420.8-543.9,421.3L-543.9,421.3z M-495,426.8c0.1,0,0.1,0,0.1,0c0,0,0.1,0,0.1,0.1l5.5,7.4
							c0-0.1,0-0.2,0-0.3v-7.1h0.5v8.5h-0.3c-0.1,0-0.2,0-0.2-0.1l-5.5-7.4c0,0.1,0,0.2,0,0.3v7.1h-0.5v-8.5H-495z M-500.6,434.9
							c0.3,0,0.6,0,0.8,0c0.2,0,0.5-0.1,0.7-0.1c0.2-0.1,0.4-0.1,0.6-0.2c0.2-0.1,0.4-0.2,0.6-0.3v-2.3h-1.6c0,0-0.1,0-0.1,0
							c0,0,0-0.1,0-0.1v-0.3h2.3v3c-0.2,0.1-0.4,0.3-0.7,0.4c-0.2,0.1-0.5,0.2-0.7,0.3c-0.3,0.1-0.5,0.1-0.8,0.2
							c-0.3,0-0.6,0.1-1,0.1c-0.6,0-1.2-0.1-1.7-0.3c-0.5-0.2-0.9-0.5-1.3-0.9c-0.4-0.4-0.6-0.8-0.8-1.4c-0.2-0.5-0.3-1.1-0.3-1.8
							s0.1-1.3,0.3-1.8c0.2-0.5,0.5-1,0.9-1.4c0.4-0.4,0.8-0.7,1.3-0.9c0.5-0.2,1.1-0.3,1.8-0.3c0.3,0,0.6,0,0.9,0.1
							c0.3,0,0.5,0.1,0.8,0.2c0.2,0.1,0.5,0.2,0.7,0.3c0.2,0.1,0.4,0.3,0.6,0.4l-0.2,0.3c0,0.1-0.1,0.1-0.2,0.1c0,0-0.1,0-0.1,0
							c-0.1,0-0.1-0.1-0.3-0.2c-0.1-0.1-0.3-0.2-0.5-0.3c-0.2-0.1-0.4-0.2-0.7-0.3c-0.3-0.1-0.6-0.1-1.1-0.1c-0.6,0-1,0.1-1.5,0.3
							c-0.4,0.2-0.8,0.4-1.1,0.8c-0.3,0.3-0.6,0.7-0.7,1.2c-0.2,0.5-0.3,1-0.3,1.6c0,0.6,0.1,1.1,0.3,1.6c0.2,0.5,0.4,0.9,0.7,1.2
							c0.3,0.3,0.7,0.6,1.1,0.8C-501.6,434.8-501.2,434.9-500.6,434.9L-500.6,434.9z M-507,435.3h-0.6v-8.5h0.6V435.3z M-510,427.8
							c0,0.1-0.1,0.1-0.2,0.1c-0.1,0-0.1,0-0.2-0.1c-0.1-0.1-0.2-0.2-0.3-0.2c-0.1-0.1-0.3-0.2-0.5-0.3c-0.2-0.1-0.5-0.1-0.8-0.1
							c-0.3,0-0.6,0-0.8,0.1c-0.2,0.1-0.4,0.2-0.6,0.4c-0.2,0.2-0.3,0.3-0.4,0.5c-0.1,0.2-0.1,0.4-0.1,0.6c0,0.3,0.1,0.5,0.2,0.7
							c0.1,0.2,0.3,0.3,0.5,0.5c0.2,0.1,0.4,0.2,0.7,0.3c0.3,0.1,0.5,0.2,0.8,0.3c0.3,0.1,0.5,0.2,0.8,0.3c0.3,0.1,0.5,0.2,0.7,0.4
							c0.2,0.2,0.4,0.4,0.5,0.6c0.1,0.2,0.2,0.5,0.2,0.9c0,0.4-0.1,0.7-0.2,1c-0.1,0.3-0.3,0.6-0.5,0.8c-0.2,0.2-0.5,0.4-0.9,0.6
							c-0.3,0.1-0.7,0.2-1.2,0.2c-0.6,0-1-0.1-1.4-0.3c-0.4-0.2-0.8-0.5-1.1-0.8l0.2-0.3c0-0.1,0.1-0.1,0.2-0.1c0,0,0.1,0,0.1,0.1
							c0.1,0,0.1,0.1,0.2,0.2c0.1,0.1,0.2,0.1,0.3,0.2c0.1,0.1,0.2,0.2,0.4,0.2c0.1,0.1,0.3,0.1,0.5,0.2c0.2,0,0.4,0.1,0.7,0.1
							c0.3,0,0.6,0,0.9-0.1c0.3-0.1,0.5-0.2,0.7-0.4c0.2-0.2,0.3-0.4,0.4-0.6c0.1-0.2,0.1-0.5,0.1-0.8c0-0.3-0.1-0.5-0.2-0.7
							c-0.1-0.2-0.3-0.4-0.5-0.5c-0.2-0.1-0.4-0.2-0.7-0.3c-0.3-0.1-0.5-0.2-0.8-0.3c-0.3-0.1-0.5-0.2-0.8-0.3
							c-0.3-0.1-0.5-0.2-0.7-0.4c-0.2-0.2-0.4-0.4-0.5-0.6c-0.1-0.2-0.2-0.5-0.2-0.9c0-0.3,0.1-0.6,0.2-0.8c0.1-0.3,0.3-0.5,0.5-0.7
							c0.2-0.2,0.5-0.4,0.8-0.5c0.3-0.1,0.7-0.2,1-0.2c0.4,0,0.8,0.1,1.2,0.2c0.4,0.1,0.7,0.4,1,0.6L-510,427.8z M-516.2,426.8v0.5
							h-4.5v3.4h3.7v0.5h-3.7v3.5h4.5v0.5h-5.1v-8.5H-516.2z M-523.2,431c0,0.7-0.1,1.2-0.3,1.8c-0.2,0.5-0.5,1-0.8,1.3
							c-0.4,0.4-0.8,0.6-1.3,0.8c-0.5,0.2-1,0.3-1.7,0.3h-3.1v-8.5h3.1c0.6,0,1.2,0.1,1.7,0.3c0.5,0.2,0.9,0.5,1.3,0.8
							c0.4,0.4,0.6,0.8,0.8,1.3C-523.3,429.8-523.2,430.4-523.2,431L-523.2,431z M-523.9,431c0-0.6-0.1-1.1-0.2-1.6
							s-0.4-0.9-0.7-1.2c-0.3-0.3-0.7-0.6-1.1-0.7c-0.4-0.2-0.9-0.3-1.4-0.3h-2.5v7.5h2.5c0.5,0,1-0.1,1.4-0.3
							c0.4-0.2,0.8-0.4,1.1-0.7c0.3-0.3,0.5-0.7,0.7-1.2C-523.9,432.2-523.9,431.6-523.9,431L-523.9,431z M-534.7,431
							c0,0.7-0.1,1.3-0.3,1.8c-0.2,0.5-0.5,1-0.8,1.4c-0.4,0.4-0.8,0.7-1.3,0.9c-0.5,0.2-1,0.3-1.6,0.3c-0.6,0-1.1-0.1-1.6-0.3
							c-0.5-0.2-0.9-0.5-1.3-0.9c-0.4-0.4-0.6-0.8-0.8-1.4c-0.2-0.5-0.3-1.1-0.3-1.8c0-0.7,0.1-1.2,0.3-1.8c0.2-0.5,0.5-1,0.8-1.4
							c0.4-0.4,0.8-0.7,1.3-0.9c0.5-0.2,1-0.3,1.6-0.3c0.6,0,1.2,0.1,1.6,0.3c0.5,0.2,0.9,0.5,1.3,0.9s0.6,0.8,0.8,1.4
							C-534.8,429.8-534.7,430.4-534.7,431z M-535.3,431c0-0.6-0.1-1.1-0.2-1.6c-0.2-0.5-0.4-0.9-0.7-1.2c-0.3-0.3-0.7-0.6-1.1-0.8
							c-0.4-0.2-0.9-0.3-1.4-0.3c-0.5,0-1,0.1-1.4,0.3c-0.4,0.2-0.8,0.4-1.1,0.8c-0.3,0.3-0.5,0.7-0.7,1.2c-0.2,0.5-0.2,1-0.2,1.6
							c0,0.6,0.1,1.1,0.2,1.6c0.2,0.5,0.4,0.9,0.7,1.2c0.3,0.3,0.7,0.6,1.1,0.8c0.4,0.2,0.9,0.3,1.4,0.3c0.5,0,1-0.1,1.4-0.3
							c0.4-0.2,0.8-0.4,1.1-0.8c0.3-0.3,0.5-0.7,0.7-1.2C-535.4,432.2-535.3,431.6-535.3,431z M-544.2,431c0,0.7-0.1,1.3-0.3,1.8
							c-0.2,0.5-0.5,1-0.8,1.4c-0.4,0.4-0.8,0.7-1.3,0.9c-0.5,0.2-1,0.3-1.6,0.3c-0.6,0-1.1-0.1-1.6-0.3c-0.5-0.2-0.9-0.5-1.3-0.9
							c-0.4-0.4-0.6-0.8-0.8-1.4c-0.2-0.5-0.3-1.1-0.3-1.8c0-0.7,0.1-1.2,0.3-1.8c0.2-0.5,0.5-1,0.8-1.4c0.4-0.4,0.8-0.7,1.3-0.9
							c0.5-0.2,1-0.3,1.6-0.3c0.6,0,1.2,0.1,1.6,0.3c0.5,0.2,0.9,0.5,1.3,0.9s0.6,0.8,0.8,1.4C-544.3,429.8-544.2,430.4-544.2,431z
							 M-544.9,431c0-0.6-0.1-1.1-0.2-1.6c-0.2-0.5-0.4-0.9-0.7-1.2c-0.3-0.3-0.7-0.6-1.1-0.8c-0.4-0.2-0.9-0.3-1.4-0.3
							c-0.5,0-1,0.1-1.4,0.3c-0.4,0.2-0.8,0.4-1.1,0.8c-0.3,0.3-0.5,0.7-0.7,1.2c-0.2,0.5-0.2,1-0.2,1.6c0,0.6,0.1,1.1,0.2,1.6
							c0.2,0.5,0.4,0.9,0.7,1.2c0.3,0.3,0.7,0.6,1.1,0.8c0.4,0.2,0.9,0.3,1.4,0.3c0.5,0,1-0.1,1.4-0.3c0.4-0.2,0.8-0.4,1.1-0.8
							c0.3-0.3,0.5-0.7,0.7-1.2C-545,432.2-544.9,431.6-544.9,431z M-552.5,426.8v0.5h-3v8h-0.6v-8h-3v-0.5H-552.5z M-559.6,426.8
							v0.5h-3v8h-0.6v-8h-3v-0.5H-559.6z M-565.8,435.3h-0.5c-0.1,0-0.1,0-0.1,0c0,0-0.1-0.1-0.1-0.1l-1-2.5h-4.2l-1,2.5
							c0,0,0,0.1-0.1,0.1s-0.1,0-0.1,0h-0.5l3.5-8.5h0.6L-565.8,435.3z M-571.4,432.2h3.8l-1.7-4.3c0-0.1-0.1-0.1-0.1-0.2
							c0-0.1-0.1-0.2-0.1-0.3c0,0.1-0.1,0.2-0.1,0.3c0,0.1-0.1,0.2-0.1,0.2L-571.4,432.2z M-572.9,426.8v0.5h-3v8h-0.6v-8h-3v-0.5
							H-572.9z"/>
					</g>
				</g>
			</g>
		</g>
	</g>
</g>
</svg>
